<svg width="55" height="55" viewBox="0 0 55 55" fill="none" xmlns="http://www.w3.org/2000/svg">
<path fill-rule="evenodd" clip-rule="evenodd" d="M27.5 3.4375C14.2119 3.4375 3.4375 14.4805 3.4375 28.1123C3.4375 39.0156 10.334 48.2539 19.8945 51.5195C21.0977 51.7451 21.5381 50.9824 21.5381 50.3271C21.5381 49.7363 21.5166 48.1895 21.5059 46.127C14.8135 47.6201 13.3955 42.8184 13.3955 42.8184C12.2998 39.9717 10.7207 39.209 10.7207 39.209C8.54004 37.6729 10.8818 37.7051 10.8818 37.7051C13.2988 37.877 14.5664 40.251 14.5664 40.251C16.7148 44.0215 20.1953 42.9365 21.5703 42.3027C21.7852 40.7129 22.4082 39.6172 23.0957 39.0049C17.7568 38.3818 12.1387 36.2656 12.1387 26.8125C12.1387 24.1162 13.0732 21.9141 14.6094 20.1953C14.3623 19.5723 13.5352 17.0586 14.8457 13.6641C14.8457 13.6641 16.8652 12.998 21.4629 16.1885C23.3857 15.6406 25.4375 15.3721 27.4893 15.3613C29.5303 15.3721 31.5928 15.6406 33.5156 16.1885C38.1133 12.998 40.1221 13.6641 40.1221 13.6641C41.4326 17.0586 40.6055 19.5723 40.3584 20.1953C41.8945 21.9248 42.8291 24.127 42.8291 26.8125C42.8291 36.2871 37.2002 38.3711 31.8398 38.9834C32.6992 39.7461 33.4727 41.25 33.4727 43.5488C33.4727 46.8467 33.4404 49.5107 33.4404 50.3164C33.4404 50.9717 33.8701 51.7451 35.0947 51.498C44.6768 48.2432 51.5625 39.0049 51.5625 28.1123C51.5625 14.4805 40.7881 3.4375 27.5 3.4375Z" fill="#F5F5DC"/>
</svg>
