<svg width="55" height="55" viewBox="0 0 55 55" fill="none" xmlns="http://www.w3.org/2000/svg">
<path d="M51.5777 14.1577V13.0089C51.5777 10.8295 49.7944 9.0462 47.6149 9.0462L47.6137 9.04727L47.6114 9.04902L47.6149 9.0462H7.17444L7.19005 9.05891L7.17444 9.04727C4.995 9.04727 3.21162 10.8306 3.21162 13.0101V40.0807C3.21162 42.2601 4.9949 44.0433 7.17444 44.0433H8.58513H46.0839C50.241 43.995 51.4896 42.9654 51.5841 40.0838L51.5777 14.1577ZM44.6624 10.0162L27.3305 22.7828L10.1114 10.0162H44.6624ZM9.56514 19.9359L25.6197 30.9945L25.6358 31.0057L9.55593 42.1868L9.56514 19.9359ZM9.98012 43.0733L26.4851 31.5966L26.7746 31.7981C26.9411 31.9139 27.1349 31.9719 27.3287 31.9719C27.5209 31.9719 28.1797 31.5936 28.1797 31.5936L44.6891 43.0733H9.98012ZM45.1032 42.1799L29.0331 31.0058L37.9955 24.8324L45.1032 19.9365V42.1799Z" fill="#F5F5DC"/>
</svg>
