<svg width="55" height="55" viewBox="0 0 55 55" fill="none" xmlns="http://www.w3.org/2000/svg">
<path d="M29.173 26.2917V26.217C29.1575 26.2423 29.141 26.2675 29.1245 26.2917H29.173Z" fill="#F5F5DC"/>
<path d="M47.7938 4.52765H6.93162C4.97582 4.52765 3.38965 6.07599 3.38965 7.98425V49.3247C3.38965 51.232 4.97582 52.7803 6.93162 52.7803H47.7938C49.7525 52.7803 51.3387 51.231 51.3387 49.3247V7.98425C51.3387 6.07502 49.7515 4.52765 47.7938 4.52765ZM17.9233 44.9213H10.6812V23.1329H17.9233V44.9213ZM14.3027 20.1566H14.2542C11.825 20.1566 10.2534 18.4831 10.2534 16.3924C10.2534 14.2552 11.8735 12.6283 14.3503 12.6283C16.828 12.6283 18.3521 14.2552 18.4006 16.3924C18.4006 18.4831 16.827 20.1566 14.3027 20.1566ZM44.0384 44.9213H36.7963V33.2621C36.7963 30.3343 35.7486 28.3358 33.1282 28.3358C31.1278 28.3358 29.9365 29.6833 29.4116 30.9852C29.2205 31.4499 29.174 32.0999 29.174 32.7519V44.9203H21.9319C21.9319 44.9203 22.027 25.1741 21.9319 23.132H29.174V26.216C30.1363 24.7317 31.8574 22.6178 35.702 22.6178C40.4664 22.6178 44.0394 25.7329 44.0394 32.4259L44.0384 44.9213Z" fill="#F5F5DC"/>
</svg>
