<svg width="55" height="55" viewBox="0 0 55 55" fill="none" xmlns="http://www.w3.org/2000/svg">
<path d="M53.8509 14.2619C53.2185 11.8954 51.355 10.0319 48.9885 9.39941C44.6989 8.25 27.5 8.25 27.5 8.25C27.5 8.25 10.301 8.25 6.01144 9.39941C3.64536 10.0319 1.78148 11.8954 1.14909 14.2619C0 18.551 0 27.5003 0 27.5003C0 27.5003 0 36.4494 1.14909 40.7381C1.78148 43.1046 3.64536 44.9686 6.01144 45.601C10.301 46.75 27.5 46.75 27.5 46.75C27.5 46.75 44.6989 46.75 48.9885 45.601C51.355 44.9686 53.2185 43.1046 53.8509 40.7381C54.9999 36.4494 54.9999 27.5003 54.9999 27.5003C54.9999 27.5003 54.9999 18.551 53.8509 14.2619ZM21.9997 35.7504V19.2501L36.2888 27.5003L21.9997 35.7504Z" fill="#F5F5DC"/>
</svg>
